<svg width="382" height="188" viewBox="0 0 382 188" fill="none" xmlns="http://www.w3.org/2000/svg">
<path d="M81.28 79.12C76.6933 79.12 72.2667 78.56 68 77.44C63.7867 76.2667 60.3467 74.7733 57.68 72.96L62.88 61.28C65.3867 62.88 68.2667 64.2133 71.52 65.28C74.8267 66.2933 78.1067 66.8 81.36 66.8C83.5467 66.8 85.3067 66.6133 86.64 66.24C87.9733 65.8133 88.9333 65.28 89.52 64.64C90.16 63.9467 90.48 63.1467 90.48 62.24C90.48 60.96 89.8933 59.9467 88.72 59.2C87.5467 58.4533 86.0267 57.84 84.16 57.36C82.2933 56.88 80.2133 56.4 77.92 55.92C75.68 55.44 73.4133 54.8267 71.12 54.08C68.88 53.3333 66.8267 52.3733 64.96 51.2C63.0933 49.9733 61.5733 48.4 60.4 46.48C59.2267 44.5067 58.64 42.0267 58.64 39.04C58.64 35.68 59.5467 32.64 61.36 29.92C63.2267 27.2 66 25.0133 69.68 23.36C73.36 21.7067 77.9467 20.88 83.44 20.88C87.12 20.88 90.72 21.3067 94.24 22.16C97.8133 22.96 100.987 24.16 103.76 25.76L98.88 37.52C96.2133 36.08 93.5733 35.0133 90.96 34.32C88.3467 33.5733 85.8133 33.2 83.36 33.2C81.1733 33.2 79.4133 33.44 78.08 33.92C76.7467 34.3467 75.7867 34.9333 75.2 35.68C74.6133 36.4267 74.32 37.28 74.32 38.24C74.32 39.4667 74.88 40.4533 76 41.2C77.1733 41.8933 78.6933 42.48 80.56 42.96C82.48 43.3867 84.56 43.84 86.8 44.32C89.0933 44.8 91.36 45.4133 93.6 46.16C95.8933 46.8533 97.9733 47.8133 99.84 49.04C101.707 50.2133 103.2 51.7867 104.32 53.76C105.493 55.68 106.08 58.1067 106.08 61.04C106.08 64.2933 105.147 67.3067 103.28 70.08C101.467 72.8 98.72 74.9867 95.04 76.64C91.4133 78.2933 86.8267 79.12 81.28 79.12ZM134.837 78.72C130.037 78.72 125.744 77.76 121.957 75.84C118.224 73.92 115.29 71.28 113.157 67.92C111.024 64.5067 109.957 60.6133 109.957 56.24C109.957 51.8667 111.024 48 113.157 44.64C115.29 41.28 118.224 38.6667 121.957 36.8C125.744 34.88 130.037 33.92 134.837 33.92C139.744 33.92 143.984 34.96 147.557 37.04C151.13 39.12 153.664 42.0533 155.157 45.84L143.397 51.84C142.384 49.8133 141.13 48.3467 139.637 47.44C138.144 46.48 136.517 46 134.757 46C132.997 46 131.397 46.4 129.957 47.2C128.517 48 127.37 49.1733 126.517 50.72C125.717 52.2133 125.317 54.0533 125.317 56.24C125.317 58.48 125.717 60.3733 126.517 61.92C127.37 63.4667 128.517 64.64 129.957 65.44C131.397 66.24 132.997 66.64 134.757 66.64C136.517 66.64 138.144 66.1867 139.637 65.28C141.13 64.32 142.384 62.8267 143.397 60.8L155.157 66.8C153.664 70.5867 151.13 73.52 147.557 75.6C143.984 77.68 139.744 78.72 134.837 78.72ZM160.88 78V34.64H175.36V47.28L173.2 43.68C174.48 40.4267 176.56 38 179.44 36.4C182.32 34.7467 185.813 33.92 189.92 33.92V47.6C189.227 47.4933 188.613 47.44 188.08 47.44C187.6 47.3867 187.067 47.36 186.48 47.36C183.387 47.36 180.88 48.2133 178.96 49.92C177.04 51.5733 176.08 54.2933 176.08 58.08V78H160.88ZM196.193 78V34.64H211.393V78H196.193ZM203.793 29.84C201.019 29.84 198.779 29.0667 197.073 27.52C195.366 25.9733 194.513 24.0533 194.513 21.76C194.513 19.4667 195.366 17.5467 197.073 16C198.779 14.4533 201.019 13.68 203.793 13.68C206.566 13.68 208.806 14.4267 210.513 15.92C212.219 17.36 213.073 19.2267 213.073 21.52C213.073 23.92 212.219 25.92 210.513 27.52C208.859 29.0667 206.619 29.84 203.793 29.84ZM248.551 78.72C244.871 78.72 241.724 77.92 239.111 76.32C236.497 74.6667 234.497 72.2133 233.111 68.96C231.777 65.6533 231.111 61.44 231.111 56.32C231.111 51.1467 231.751 46.9333 233.031 43.68C234.311 40.3733 236.231 37.92 238.791 36.32C241.404 34.72 244.657 33.92 248.551 33.92C252.497 33.92 256.071 34.8533 259.271 36.72C262.524 38.5333 265.084 41.12 266.951 44.48C268.871 47.7867 269.831 51.7333 269.831 56.32C269.831 60.9067 268.871 64.88 266.951 68.24C265.084 71.6 262.524 74.1867 259.271 76C256.071 77.8133 252.497 78.72 248.551 78.72ZM221.271 93.52V34.64H235.751V42L235.671 56.32L236.471 70.72V93.52H221.271ZM245.351 66.64C247.057 66.64 248.577 66.24 249.911 65.44C251.297 64.64 252.391 63.4667 253.191 61.92C254.044 60.3733 254.471 58.5067 254.471 56.32C254.471 54.1333 254.044 52.2667 253.191 50.72C252.391 49.1733 251.297 48 249.911 47.2C248.577 46.4 247.057 46 245.351 46C243.644 46 242.097 46.4 240.711 47.2C239.377 48 238.284 49.1733 237.431 50.72C236.631 52.2667 236.231 54.1333 236.231 56.32C236.231 58.5067 236.631 60.3733 237.431 61.92C238.284 63.4667 239.377 64.64 240.711 65.44C242.097 66.24 243.644 66.64 245.351 66.64Z" fill="#4FE94B"/>
<path d="M24.8 168L0.88 112H18L38.16 160.48H28.08L48.72 112H64.4L40.4 168H24.8ZM90.235 168V159.92L89.195 157.92V143.04C89.195 140.64 88.4483 138.8 86.955 137.52C85.515 136.187 83.195 135.52 79.995 135.52C77.915 135.52 75.8083 135.867 73.675 136.56C71.5417 137.2 69.7283 138.107 68.235 139.28L63.115 128.96C65.5683 127.36 68.5017 126.133 71.915 125.28C75.3817 124.373 78.8217 123.92 82.235 123.92C89.275 123.92 94.715 125.547 98.555 128.8C102.448 132 104.395 137.04 104.395 143.92V168H90.235ZM77.435 168.72C73.9683 168.72 71.035 168.133 68.635 166.96C66.235 165.787 64.395 164.187 63.115 162.16C61.8883 160.133 61.275 157.867 61.275 155.36C61.275 152.693 61.9417 150.4 63.275 148.48C64.6617 146.507 66.7683 145.013 69.595 144C72.4217 142.933 76.075 142.4 80.555 142.4H90.795V150.32H82.635C80.1817 150.32 78.4483 150.72 77.435 151.52C76.475 152.32 75.995 153.387 75.995 154.72C75.995 156.053 76.5017 157.12 77.515 157.92C78.5283 158.72 79.915 159.12 81.675 159.12C83.3283 159.12 84.8217 158.72 86.155 157.92C87.5417 157.067 88.555 155.787 89.195 154.08L91.275 159.68C90.475 162.667 88.9017 164.933 86.555 166.48C84.2617 167.973 81.2217 168.72 77.435 168.72ZM113.989 168V108.64H129.189V168H113.989ZM157.308 168.72C153.788 168.72 150.614 168.027 147.788 166.64C145.014 165.253 142.828 163.093 141.228 160.16C139.681 157.173 138.908 153.413 138.908 148.88V124.64H154.108V146.4C154.108 149.76 154.721 152.16 155.948 153.6C157.228 155.04 159.014 155.76 161.308 155.76C162.801 155.76 164.161 155.413 165.388 154.72C166.614 154.027 167.601 152.933 168.348 151.44C169.094 149.893 169.468 147.92 169.468 145.52V124.64H184.668V168H170.188V155.76L172.988 159.2C171.494 162.4 169.334 164.8 166.508 166.4C163.681 167.947 160.614 168.72 157.308 168.72ZM213.818 168.72C208.271 168.72 203.951 167.36 200.858 164.64C197.765 161.867 196.218 157.707 196.218 152.16V114.96H211.418V152C211.418 153.547 211.845 154.773 212.698 155.68C213.551 156.533 214.645 156.96 215.978 156.96C217.791 156.96 219.338 156.507 220.618 155.6L224.378 166.24C223.098 167.093 221.525 167.707 219.658 168.08C217.791 168.507 215.845 168.72 213.818 168.72ZM189.898 137.6V126.24H221.338V137.6H189.898Z" fill="#454545"/>
<rect x="329" y="27" width="50.2151" height="77" stroke="#454545" stroke-width="4"/>
<circle cx="369.598" cy="65.3386" r="3.22709" fill="#454545"/>
<rect x="229.643" y="150.592" width="45.5731" height="6.07641" transform="rotate(-65 229.643 150.592)" fill="#4FE94B"/>
<rect x="281.89" y="131.576" width="45.5731" height="6.07641" transform="rotate(-65 281.89 131.576)" fill="#4FE94B"/>
<rect x="248.925" y="109.281" width="45.5731" height="6.07641" transform="rotate(25 248.925 109.281)" fill="#4FE94B"/>
<rect x="301.223" y="90.119" width="30.2649" height="6.07641" transform="rotate(20 301.223 90.119)" fill="#4FE94B"/>
<rect x="322.54" y="102.538" width="30.2649" height="6.07641" transform="rotate(-55 322.54 102.538)" fill="#4FE94B"/>
</svg>
